<svg width="24" height="23" viewBox="0 0 24 23" fill="none" xmlns="http://www.w3.org/2000/svg">
<path d="M19.1995 6.70842H18.8095C18.9293 6.40168 18.9936 6.07758 18.9995 5.75009C18.9785 4.97057 18.6365 4.23068 18.0482 3.692C17.4598 3.15333 16.673 2.85964 15.8595 2.87509C15.06 2.89164 14.2799 3.11386 13.6008 3.5185C12.9217 3.92314 12.3686 4.49531 11.9995 5.17509C11.6303 4.49531 11.0772 3.92314 10.3981 3.5185C9.71906 3.11386 8.93894 2.89164 8.13947 2.87509C7.32595 2.85964 6.5391 3.15333 5.95077 3.692C5.36244 4.23068 5.02045 4.97057 4.99947 5.75009C5.00538 6.07758 5.06964 6.40168 5.18947 6.70842H4.79947C4.53633 6.73237 4.28075 6.80607 4.04751 6.92525C3.81427 7.04444 3.60799 7.20675 3.44061 7.4028C3.27323 7.59886 3.14806 7.82476 3.07234 8.06746C2.99662 8.31016 2.97185 8.56483 2.99947 8.81676V12.2668C2.95276 12.7308 3.07725 13.1959 3.35131 13.5811C3.62536 13.9663 4.03164 14.2472 4.49947 14.3751V18.563C4.53034 18.9977 4.73652 19.4038 5.07435 19.6954C5.41218 19.9869 5.85515 20.141 6.30947 20.1251H17.6895C18.1503 20.1407 18.599 19.9813 18.9379 19.6816C19.2769 19.382 19.4787 18.9662 19.4995 18.5247V14.3751C19.9673 14.2472 20.3736 13.9663 20.6476 13.5811C20.9217 13.1959 21.0462 12.7308 20.9995 12.2668V8.81676C21.0271 8.56483 21.0023 8.31016 20.9266 8.06746C20.8509 7.82476 20.7257 7.59886 20.5583 7.4028C20.391 7.20675 20.1847 7.04444 19.9514 6.92525C19.7182 6.80607 19.4626 6.73237 19.1995 6.70842ZM18.9995 8.81676V12.2668C19.0115 12.3301 19.0115 12.3951 18.9995 12.4584H12.9995V8.62509H18.9995C19.0115 8.68846 19.0115 8.75339 18.9995 8.81676ZM15.8595 4.79176C16.1428 4.77594 16.4212 4.8676 16.6345 5.04693C16.8478 5.22627 16.9789 5.47886 16.9995 5.75009C16.9789 6.02133 16.8478 6.27392 16.6345 6.45325C16.4212 6.63258 16.1428 6.72425 15.8595 6.70842H13.3995C13.5744 6.19646 13.8994 5.74353 14.3356 5.40368C14.7718 5.06384 15.3008 4.85142 15.8595 4.79176ZM6.99947 5.75009C7.02001 5.47886 7.15112 5.22627 7.36445 5.04693C7.57777 4.8676 7.85618 4.77594 8.13947 4.79176C8.69639 4.85315 9.22323 5.06636 9.6575 5.4061C10.0918 5.74583 10.4152 6.19781 10.5895 6.70842H8.13947C7.85618 6.72425 7.57777 6.63258 7.36445 6.45325C7.15112 6.27392 7.02001 6.02133 6.99947 5.75009ZM4.99947 8.81676C4.98747 8.75339 4.98747 8.68846 4.99947 8.62509H10.9995V12.4584H4.99947C4.98747 12.3951 4.98747 12.3301 4.99947 12.2668V8.81676ZM6.49947 14.3751H10.9995V18.2084H6.49947V14.3751ZM12.9995 18.2084V14.3751H17.4995V18.2084H12.9995Z" fill="white"/>
</svg>
