<svg width="18" height="18" viewBox="0 0 18 18" fill="none" xmlns="http://www.w3.org/2000/svg">
<path d="M7.39482 13.501C7.29198 13.5007 7.19031 13.4792 7.09613 13.4379C7.00194 13.3967 6.91725 13.3364 6.84732 13.261L3.20232 9.38353C3.06607 9.23833 2.99307 9.04494 2.9994 8.84592C3.00573 8.64689 3.09086 8.45854 3.23607 8.32228C3.38128 8.18603 3.57466 8.11304 3.77369 8.11936C3.97271 8.12569 4.16107 8.21083 4.29732 8.35603L7.38732 11.6485L13.6948 4.74853C13.7588 4.66882 13.8385 4.60304 13.9288 4.55523C14.0192 4.50742 14.1184 4.47858 14.2203 4.47049C14.3222 4.4624 14.4247 4.47523 14.5214 4.50819C14.6182 4.54116 14.7072 4.59355 14.783 4.66217C14.8588 4.73078 14.9197 4.81416 14.9621 4.90719C15.0045 5.00022 15.0274 5.10093 15.0295 5.20314C15.0315 5.30534 15.0126 5.40689 14.974 5.50154C14.9354 5.59619 14.8778 5.68194 14.8048 5.75353L7.94982 13.2535C7.88055 13.3303 7.79616 13.3919 7.70194 13.4345C7.60772 13.4771 7.50571 13.4997 7.40232 13.501H7.39482Z" fill="#788184"/>
</svg>
