<svg width="18" height="18" viewBox="0 0 18 18" fill="none" xmlns="http://www.w3.org/2000/svg">
<path d="M7.39506 13.4999C7.29223 13.4996 7.19056 13.4781 7.09637 13.4368C7.00218 13.3956 6.91749 13.3353 6.84756 13.2599L3.20256 9.38243C3.06631 9.23723 2.99332 9.04384 2.99965 8.84482C3.00598 8.6458 3.09111 8.45744 3.23631 8.32118C3.38152 8.18493 3.57491 8.11194 3.77393 8.11827C3.97295 8.1246 4.16131 8.20973 4.29756 8.35493L7.38756 11.6474L13.6951 4.74743C13.7591 4.66772 13.8387 4.60194 13.9291 4.55413C14.0194 4.50632 14.1186 4.47748 14.2205 4.46939C14.3224 4.4613 14.4249 4.47413 14.5217 4.5071C14.6184 4.54006 14.7074 4.59245 14.7832 4.66107C14.859 4.72968 14.92 4.81306 14.9623 4.90609C15.0047 4.99912 15.0276 5.09983 15.0297 5.20204C15.0317 5.30424 15.0129 5.40579 14.9742 5.50044C14.9356 5.59509 14.878 5.68084 14.8051 5.75243L7.95006 13.2524C7.8808 13.3292 7.7964 13.3908 7.70218 13.4334C7.60796 13.476 7.50596 13.4986 7.40256 13.4999H7.39506Z" fill="#4B78B3"/>
</svg>
