<svg width="24" height="24" viewBox="0 0 24 24" fill="none" xmlns="http://www.w3.org/2000/svg">
<path d="M12 0C5.3736 0 0 5.3736 0 12C0 18.6264 5.3736 24 12 24C18.6264 24 24 18.6264 24 12C24 5.3736 18.6264 0 12 0ZM12.2543 18.9868C12.2542 18.9868 12.2545 18.9868 12.2543 18.9868H12.2514C11.0493 18.9862 9.8681 18.6848 8.81909 18.1128L5.01178 19.1113L6.03076 15.3906C5.40216 14.3018 5.07147 13.0666 5.07202 11.8011C5.07367 7.84241 8.29559 4.62177 12.2543 4.62177C14.1755 4.6225 15.9789 5.3703 17.3348 6.72729C18.6909 8.08447 19.4372 9.88843 19.4365 11.8068C19.4348 15.7657 16.2125 18.9868 12.2543 18.9868Z" fill="#788184"/>
<path d="M12.2566 5.8345C8.96381 5.8345 6.28589 8.51132 6.28442 11.8017C6.28406 12.9293 6.59973 14.0274 7.19721 14.9775L7.33911 15.2033L6.73596 17.4055L8.9953 16.813L9.21338 16.9422C10.1298 17.486 11.1805 17.7737 12.2517 17.7741H12.254C15.5443 17.7741 18.2222 15.0971 18.2236 11.8065C18.2242 10.2118 17.6038 8.71255 16.4768 7.58462C15.3498 6.4567 13.8509 5.83505 12.2566 5.8345ZM15.7678 14.3674C15.6182 14.7863 14.9014 15.1689 14.5566 15.2205C14.2473 15.2666 13.8562 15.2859 13.4263 15.1494C13.1655 15.0667 12.8314 14.9563 12.4031 14.7715C10.603 13.9944 9.42725 12.1824 9.33753 12.0627C9.24781 11.9429 8.60474 11.0898 8.60474 10.2067C8.60474 9.32376 9.06836 8.88962 9.23279 8.71017C9.3974 8.53055 9.59186 8.48569 9.71143 8.48569C9.831 8.48569 9.95075 8.48678 10.0553 8.49191C10.1655 8.49741 10.3135 8.44998 10.4591 8.7999C10.6086 9.15915 10.9675 10.0421 11.0124 10.1318C11.0573 10.2217 11.0871 10.3264 11.0274 10.4462C10.9675 10.5659 10.7687 10.8243 10.5788 11.0598C10.4992 11.1585 10.3953 11.2464 10.5001 11.426C10.6046 11.6054 10.965 12.193 11.4984 12.6687C12.1839 13.2799 12.7622 13.4693 12.9416 13.5592C13.1209 13.6489 13.2256 13.6339 13.3303 13.5143C13.4349 13.3946 13.7789 12.9904 13.8985 12.8108C14.0181 12.6312 14.1378 12.6612 14.3023 12.7211C14.4669 12.7808 15.3491 13.2149 15.5285 13.3047C15.708 13.3946 15.8275 13.4394 15.8724 13.5143C15.9174 13.5892 15.9174 13.9483 15.7678 14.3674Z" fill="#788184"/>
</svg>
