<svg width="18" height="18" viewBox="0 0 18 18" fill="none" xmlns="http://www.w3.org/2000/svg">
<path d="M7.39506 13.5002C7.29223 13.4998 7.19056 13.4784 7.09637 13.4371C7.00218 13.3958 6.91749 13.3356 6.84756 13.2602L3.20256 9.38268C3.06631 9.23747 2.99332 9.04409 2.99965 8.84506C3.00598 8.64604 3.09111 8.45768 3.23631 8.32143C3.38152 8.18517 3.57491 8.11218 3.77393 8.11851C3.97295 8.12484 4.16131 8.20997 4.29756 8.35518L7.38756 11.6477L13.6951 4.74768C13.7591 4.66797 13.8387 4.60219 13.9291 4.55437C14.0194 4.50656 14.1186 4.47772 14.2205 4.46964C14.3224 4.46155 14.4249 4.47438 14.5217 4.50734C14.6184 4.5403 14.7074 4.5927 14.7832 4.66131C14.859 4.72992 14.92 4.81331 14.9623 4.90633C15.0047 4.99936 15.0276 5.10007 15.0297 5.20228C15.0317 5.30449 15.0129 5.40604 14.9742 5.50069C14.9356 5.59533 14.878 5.68109 14.8051 5.75268L7.95006 13.2527C7.8808 13.3294 7.7964 13.3911 7.70218 13.4337C7.60796 13.4762 7.50596 13.4989 7.40256 13.5002H7.39506Z" fill="#FFA40E"/>
</svg>
