<svg width="406" height="391" viewBox="0 0 406 391" fill="none" xmlns="http://www.w3.org/2000/svg">
<path fill-rule="evenodd" clip-rule="evenodd" d="M72.1209 142.755C77.3983 114.697 86.6542 87.3278 106.146 66.431C127.226 43.8326 154.029 24.0126 184.931 21.8152C215.671 19.6292 242.474 38.9625 268.874 54.8593C295.276 70.7576 325.433 85.1896 337.297 113.563C349.14 141.886 338.061 173.269 330.845 203.068C323.695 232.591 319.611 265.822 295.832 284.794C272.315 303.556 239.084 298.307 209.004 300.272C179.603 302.194 148.299 310.959 122.859 296.096C97.3089 281.169 85.9752 251.003 76.702 222.977C68.0708 196.892 67.0473 169.731 72.1209 142.755Z" stroke="#154D54"/>
<g filter="url(#filter0_dii_93_1039)">
<path fill-rule="evenodd" clip-rule="evenodd" d="M180.51 323.741C211.298 324.971 242.336 322.171 269.079 307.932C297.999 292.533 325.402 270.93 335.284 241.333C345.115 211.892 331.36 181.4 321.119 152.081C310.877 122.758 303.096 90.112 276.177 72.1162C249.307 54.1525 213.602 57.8175 180.51 58.0801C147.724 58.3402 111.792 54.7731 86.0221 73.6249C60.5372 92.2683 57.9116 125.822 48.4744 154.671C39.2501 182.868 22.3648 211.364 31.7544 239.515C41.1846 267.787 70.1174 285.673 97.305 301.067C122.61 315.394 150.911 322.558 180.51 323.741Z" fill="url(#paint0_linear_93_1039)"/>
</g>
<defs>
<filter id="filter0_dii_93_1039" x="0" y="28.6005" width="405.662" height="362.4" filterUnits="userSpaceOnUse" color-interpolation-filters="sRGB">
<feFlood flood-opacity="0" result="BackgroundImageFix"/>
<feColorMatrix in="SourceAlpha" type="matrix" values="0 0 0 0 0 0 0 0 0 0 0 0 0 0 0 0 0 0 127 0" result="hardAlpha"/>
<feOffset dx="19" dy="19"/>
<feGaussianBlur stdDeviation="24"/>
<feColorMatrix type="matrix" values="0 0 0 0 0.305882 0 0 0 0 0.129412 0 0 0 0 0.2 0 0 0 0.5 0"/>
<feBlend mode="normal" in2="BackgroundImageFix" result="effect1_dropShadow_93_1039"/>
<feBlend mode="normal" in="SourceGraphic" in2="effect1_dropShadow_93_1039" result="shape"/>
<feColorMatrix in="SourceAlpha" type="matrix" values="0 0 0 0 0 0 0 0 0 0 0 0 0 0 0 0 0 0 127 0" result="hardAlpha"/>
<feOffset dx="-1" dy="-1"/>
<feGaussianBlur stdDeviation="1"/>
<feComposite in2="hardAlpha" operator="arithmetic" k2="-1" k3="1"/>
<feColorMatrix type="matrix" values="0 0 0 0 0.305882 0 0 0 0 0.129412 0 0 0 0 0.2 0 0 0 0.5 0"/>
<feBlend mode="normal" in2="shape" result="effect2_innerShadow_93_1039"/>
<feColorMatrix in="SourceAlpha" type="matrix" values="0 0 0 0 0 0 0 0 0 0 0 0 0 0 0 0 0 0 127 0" result="hardAlpha"/>
<feOffset dx="1" dy="1"/>
<feGaussianBlur stdDeviation="1"/>
<feComposite in2="hardAlpha" operator="arithmetic" k2="-1" k3="1"/>
<feColorMatrix type="matrix" values="0 0 0 0 1 0 0 0 0 0.513726 0 0 0 0 0.803922 0 0 0 0.3 0"/>
<feBlend mode="normal" in2="effect2_innerShadow_93_1039" result="effect3_innerShadow_93_1039"/>
</filter>
<linearGradient id="paint0_linear_93_1039" x1="29" y1="324" x2="292.412" y2="17.8122" gradientUnits="userSpaceOnUse">
<stop stop-color="#A551A3"/>
<stop offset="1" stop-color="#DA547C"/>
</linearGradient>
</defs>
</svg>
