<svg width="244" height="210" viewBox="0 0 244 210" fill="none" xmlns="http://www.w3.org/2000/svg">
<g opacity="0.5">
<path opacity="0.5" d="M298.126 111.634L242.639 167.122" stroke="#939393" stroke-width="2.1221" stroke-miterlimit="10"/>
<path opacity="0.5" d="M294.515 108.028L239.027 163.516" stroke="#939393" stroke-width="2.1221" stroke-miterlimit="10"/>
<path opacity="0.5" d="M290.908 104.423L235.42 159.91" stroke="#939393" stroke-width="2.1221" stroke-miterlimit="10"/>
<path opacity="0.5" d="M287.304 100.817L231.816 156.304" stroke="#939393" stroke-width="2.1221" stroke-miterlimit="10"/>
<path opacity="0.5" d="M283.7 97.2112L228.212 152.699" stroke="#939393" stroke-width="2.1221" stroke-miterlimit="10"/>
<path opacity="0.5" d="M280.092 93.6057L224.604 149.093" stroke="#939393" stroke-width="2.1221" stroke-miterlimit="10"/>
<path opacity="0.5" d="M276.488 90L221 145.488" stroke="#939393" stroke-width="2.1221" stroke-miterlimit="10"/>
</g>
<g opacity="0.8">
<path opacity="0.8" d="M192.817 187.353C227.166 153.005 227.166 97.3143 192.817 62.9655C158.468 28.6168 102.778 28.6168 68.4292 62.9655C34.0805 97.3143 34.0805 153.005 68.4292 187.353C102.778 221.702 158.468 221.702 192.817 187.353Z" stroke="#939393" stroke-width="0.5" stroke-miterlimit="10"/>
<path opacity="0.8" d="M189.681 184.221C222.3 151.602 222.3 98.7168 189.681 66.0982C157.063 33.4796 104.177 33.4796 71.5588 66.0982C38.9402 98.7168 38.9402 151.602 71.5588 184.221C104.177 216.839 157.063 216.839 189.681 184.221Z" stroke="#939393" stroke-width="0.6562" stroke-miterlimit="10"/>
<path opacity="0.8" d="M130.624 204.248C174.304 204.248 209.713 168.839 209.713 125.159C209.713 81.4789 174.304 46.0693 130.624 46.0693C86.9438 46.0693 51.5342 81.4789 51.5342 125.159C51.5342 168.839 86.9438 204.248 130.624 204.248Z" stroke="#939393" stroke-width="0.8125" stroke-miterlimit="10"/>
<path opacity="0.8" d="M130.623 199.818C171.856 199.818 205.282 166.392 205.282 125.159C205.282 83.9254 171.856 50.4993 130.623 50.4993C89.3899 50.4993 55.9639 83.9254 55.9639 125.159C55.9639 166.392 89.3899 199.818 130.623 199.818Z" stroke="#939393" stroke-width="0.9688" stroke-miterlimit="10"/>
<path opacity="0.8" d="M180.281 174.819C207.707 147.393 207.707 102.927 180.281 75.5008C152.856 48.075 108.389 48.075 80.9636 75.5008C53.5377 102.927 53.5377 147.393 80.9636 174.819C108.389 202.244 152.856 202.244 180.281 174.819Z" stroke="#939393" stroke-width="1.125" stroke-miterlimit="10"/>
<path opacity="0.8" d="M177.15 171.686C202.845 145.99 202.845 104.329 177.15 78.6334C151.454 52.9376 109.793 52.9376 84.097 78.6334C58.4013 104.329 58.4013 145.99 84.0971 171.686C109.793 197.382 151.454 197.382 177.15 171.686Z" stroke="#939393" stroke-width="1.2812" stroke-miterlimit="10"/>
<path opacity="0.8" d="M174.018 168.554C197.984 144.588 197.984 105.732 174.018 81.7663C150.052 57.8007 111.196 57.8007 87.2306 81.7663C63.2649 105.732 63.2649 144.588 87.2306 168.554C111.196 192.519 150.052 192.519 174.018 168.554Z" stroke="#939393" stroke-width="1.4375" stroke-miterlimit="10"/>
<path opacity="0.8" d="M170.882 165.421C193.118 143.185 193.118 107.134 170.882 84.8987C148.647 62.6631 112.596 62.6631 90.3601 84.8987C68.1246 107.134 68.1246 143.185 90.3601 165.421C112.596 187.656 148.647 187.656 170.882 165.421Z" stroke="#939393" stroke-width="1.5938" stroke-miterlimit="10"/>
<path opacity="0.8" d="M182.47 133.536C187.089 104.908 167.627 77.9553 138.998 73.3357C110.37 68.7161 83.4177 88.1788 78.7981 116.807C74.1785 145.435 93.6413 172.388 122.269 177.007C150.898 181.627 177.85 162.164 182.47 133.536Z" stroke="#939393" stroke-width="1.75" stroke-miterlimit="10"/>
<path opacity="0.8" d="M130.623 173.236C157.176 173.236 178.701 151.711 178.701 125.159C178.701 98.6062 157.176 77.0811 130.623 77.0811C104.071 77.0811 82.5454 98.6062 82.5454 125.159C82.5454 151.711 104.071 173.236 130.623 173.236Z" stroke="#939393" stroke-width="1.9062" stroke-miterlimit="10"/>
<path opacity="0.8" d="M161.485 156.022C178.53 138.977 178.53 111.341 161.485 94.2961C144.44 77.2509 116.804 77.2509 99.7586 94.2961C82.7134 111.341 82.7134 138.977 99.7586 156.022C116.804 173.067 144.44 173.067 161.485 156.022Z" stroke="#939393" stroke-width="2.0625" stroke-miterlimit="10"/>
<path opacity="0.8" d="M158.349 152.886C173.661 137.573 173.661 112.746 158.349 97.4336C143.036 82.121 118.209 82.121 102.896 97.4337C87.5838 112.746 87.5838 137.573 102.896 152.886C118.209 168.198 143.036 168.198 158.349 152.886Z" stroke="#939393" stroke-width="2.2188" stroke-miterlimit="10"/>
<path opacity="0.8" d="M155.215 149.753C168.797 136.17 168.797 114.149 155.215 100.566C141.632 86.9834 119.61 86.9834 106.028 100.566C92.4454 114.149 92.4454 136.17 106.028 149.753C119.61 163.335 141.632 163.335 155.215 149.753Z" stroke="#939393" stroke-width="2.375" stroke-miterlimit="10"/>
<path opacity="0.8" d="M152.085 146.62C163.937 134.768 163.937 115.551 152.085 103.699C140.233 91.8462 121.016 91.8462 109.163 103.699C97.3109 115.551 97.311 134.768 109.163 146.62C121.016 158.473 140.233 158.473 152.085 146.62Z" stroke="#939393" stroke-width="2.5312" stroke-miterlimit="10"/>
<path opacity="0.8" d="M156.359 128.193C158.037 113.977 147.872 101.092 133.656 99.4139C119.439 97.7361 106.554 107.901 104.877 122.117C103.199 136.334 113.364 149.219 127.58 150.896C141.797 152.574 154.682 142.41 156.359 128.193Z" stroke="#939393" stroke-width="2.6875" stroke-miterlimit="10"/>
<path opacity="0.8" d="M130.623 146.648C142.491 146.648 152.113 137.027 152.113 125.158C152.113 113.29 142.491 103.668 130.623 103.668C118.754 103.668 109.133 113.29 109.133 125.158C109.133 137.027 118.754 146.648 130.623 146.648Z" stroke="#939393" stroke-width="2.8438" stroke-miterlimit="10"/>
<path opacity="0.8" d="M147.643 126.53C148.391 117.138 141.385 108.918 131.993 108.17C122.601 107.422 114.381 114.429 113.633 123.821C112.885 133.212 119.892 141.432 129.284 142.18C138.675 142.928 146.895 135.921 147.643 126.53Z" stroke="#939393" stroke-width="3" stroke-miterlimit="10"/>
</g>
<path opacity="0.49" d="M4.9589 167.563C7.12376 167.563 8.87871 165.808 8.87871 163.643C8.87871 161.479 7.12376 159.724 4.9589 159.724C2.79404 159.724 1.03906 161.479 1.03906 163.643C1.03906 165.808 2.79404 167.563 4.9589 167.563Z" stroke="#939393" stroke-width="2" stroke-miterlimit="10" stroke-linecap="round" stroke-linejoin="round"/>
<path opacity="0.49" d="M200 32.6548C202.325 30.3298 206.399 34.4033 208.724 32.0783C211.049 29.7533 206.975 25.6798 209.3 23.3548C211.625 21.0298 215.699 25.1033 218.024 22.7784C220.349 20.4534 216.275 16.3798 218.59 14.0548C220.915 11.7298 224.989 15.8034 227.314 13.4784C229.639 11.1534 225.565 7.07986 227.89 4.74525C230.215 2.42026 234.289 6.4938 236.623 4.1688" stroke="#939393" stroke-width="2" stroke-miterlimit="10" stroke-linecap="round" stroke-linejoin="round"/>
</svg>
