<svg width="24" height="24" viewBox="0 0 24 24" fill="none" xmlns="http://www.w3.org/2000/svg">
<path d="M11.9995 2C10.0217 2 8.08831 2.58649 6.44381 3.6853C4.79932 4.78412 3.5176 6.3459 2.76072 8.17317C2.00384 10.0004 1.80581 12.0111 2.19166 13.9509C2.57752 15.8907 3.52992 17.6725 4.92845 19.0711C6.32697 20.4696 8.1088 21.422 10.0486 21.8079C11.9884 22.1937 13.9991 21.9957 15.8264 21.2388C17.6536 20.4819 19.2154 19.2002 20.3142 17.5557C21.413 15.9112 21.9995 13.9778 21.9995 12C21.9995 10.6868 21.7409 9.38642 21.2383 8.17317C20.7358 6.95991 19.9992 5.85752 19.0706 4.92893C18.142 4.00035 17.0396 3.26375 15.8264 2.7612C14.6131 2.25866 13.3127 2 11.9995 2ZM11.9995 20C10.4173 20 8.87055 19.5308 7.55495 18.6518C6.23936 17.7727 5.21398 16.5233 4.60848 15.0615C4.00298 13.5997 3.84455 11.9911 4.15323 10.4393C4.46192 8.88743 5.22384 7.46197 6.34266 6.34315C7.46148 5.22433 8.88695 4.4624 10.4388 4.15372C11.9906 3.84504 13.5992 4.00346 15.061 4.60896C16.5228 5.21447 17.7722 6.23985 18.6513 7.55544C19.5303 8.87103 19.9995 10.4178 19.9995 12C19.9995 14.1217 19.1567 16.1566 17.6564 17.6569C16.1561 19.1571 14.1212 20 11.9995 20Z" fill="white"/>
<path d="M15.9995 11H12.9995V8C12.9995 7.73478 12.8942 7.48043 12.7066 7.29289C12.5191 7.10536 12.2647 7 11.9995 7C11.7343 7 11.4799 7.10536 11.2924 7.29289C11.1049 7.48043 10.9995 7.73478 10.9995 8V12C10.9995 12.2652 11.1049 12.5196 11.2924 12.7071C11.4799 12.8946 11.7343 13 11.9995 13H15.9995C16.2647 13 16.5191 12.8946 16.7066 12.7071C16.8942 12.5196 16.9995 12.2652 16.9995 12C16.9995 11.7348 16.8942 11.4804 16.7066 11.2929C16.5191 11.1054 16.2647 11 15.9995 11Z" fill="white"/>
</svg>
