<svg width="113" height="131" viewBox="0 0 113 131" fill="none" xmlns="http://www.w3.org/2000/svg">
<path d="M93.587 28.1968C93.501 27.9125 93.4084 27.6248 93.3158 27.3372C93.2927 27.2644 93.2663 27.1917 93.2431 27.1189C93.1671 26.8974 93.0943 26.6792 93.0183 26.4642C92.9918 26.3915 92.9654 26.3221 92.9422 26.2493C92.8596 26.0179 92.7736 25.7897 92.6843 25.5583C92.6678 25.5087 92.6479 25.4591 92.6281 25.4095C92.5223 25.1318 92.4132 24.8573 92.3008 24.5829L92.2975 24.5796C91.1733 21.8451 89.7515 19.2628 88.0718 16.8723L81.1018 17.1764L80.2851 17.2128C77.8516 17.3186 75.4544 16.621 73.4408 15.2488C69.7343 12.7194 64.4341 12.3755 61.2665 12.7293C57.5798 13.1426 46.7776 11.2282 46.5131 14.118C46.3379 16.0225 58.0658 15.7811 58.2179 16.4986C58.5519 18.0824 42.8661 16.4523 42.7339 19.653C42.6314 22.1262 58.3866 20.2944 58.1287 21.6534C57.9071 22.8139 40.7864 22.1262 40.7864 24.9069C40.7864 28.0117 57.593 24.8705 57.7154 26.3188C57.7154 26.3188 52.7557 28.1935 52.4416 32.8093C52.0051 39.204 56.8788 43.5123 56.0754 35.2792C55.4207 28.5936 65.0127 28.091 65.5186 30.0617C65.9153 31.6058 61.5244 36.1455 60.7672 38.0699C58.8098 43.0461 61.4682 43.5321 61.4682 43.5321C61.4682 43.5321 62.4667 40.5563 69.4731 34.6477C70.9511 33.4012 72.1645 32.1183 73.1598 30.8684C75.6032 27.8034 79.5015 26.2824 83.3866 26.8114L87.2981 27.3438C88.7893 31.166 89.6027 35.3255 89.6027 39.6735C89.6027 58.4574 74.3765 73.6836 55.5959 73.6836C46.7677 73.6836 38.7298 70.3176 32.6823 64.8058C32.3252 64.7562 31.9582 64.7297 31.5845 64.7297C31.4622 64.7297 31.3399 64.733 31.2175 64.7396L30.2057 64.7859L25.0609 65.0075C32.3384 73.7695 43.3158 79.3508 55.5959 79.3508C77.5077 79.3508 95.2733 61.5853 95.2733 39.6735C95.2733 35.6826 94.6847 31.8306 93.587 28.1968Z" fill="url(#paint0_linear_94_2)"/>
<path d="M55.5958 0C33.684 0 15.9185 17.7622 15.9185 39.674C15.9185 43.6649 16.507 47.5169 17.6047 51.1507C17.6742 51.3788 17.7469 51.607 17.8197 51.8384C17.8428 51.9079 17.866 51.9773 17.8891 52.0467C17.942 52.2121 17.9949 52.3741 18.0511 52.5394C18.0776 52.6121 18.1007 52.6849 18.1272 52.7576C18.1966 52.9527 18.266 53.1511 18.3388 53.3462C18.3487 53.3759 18.3586 53.4057 18.3718 53.4354C18.4512 53.6537 18.5339 53.8686 18.6165 54.0835C18.6496 54.1629 18.6793 54.2422 18.7124 54.3183C18.7686 54.4637 18.8281 54.6092 18.8876 54.7547C18.9207 54.8374 18.9538 54.92 18.9901 55.0027C19.0596 55.168 19.129 55.3333 19.2018 55.4954C19.2249 55.5483 19.2447 55.6045 19.2712 55.6574C20.3293 58.0645 21.6254 60.3459 23.1199 62.4753L30.0899 62.1711L31.1017 62.1281C33.4095 62.0256 35.7042 62.6538 37.5889 63.9896C41.2987 66.6182 46.7114 66.9786 49.9219 66.6182C53.6119 66.2049 64.4141 68.1194 64.6786 65.2295C64.8538 63.325 53.1259 63.5664 52.9738 62.8489C52.6398 61.2684 68.3256 62.8985 68.4579 59.6945C68.5604 57.2213 52.8018 59.0531 53.0631 57.6941C53.2846 56.5369 70.4054 57.2213 70.4054 54.4406C70.4054 51.3359 53.5987 54.4803 53.4764 53.0288C53.354 51.5772 68.0412 50.9391 66.6393 47.583C65.5085 44.8685 46.179 51.2565 45.6732 49.2859C45.2764 47.7451 49.6673 43.202 50.4245 41.281C52.3819 36.3015 49.7202 35.8154 49.7202 35.8154C49.7202 35.8154 48.7217 38.7912 41.7186 44.6998C40.1845 45.9959 38.9346 47.3284 37.9228 48.6213C35.5951 51.5838 31.8754 53.0916 28.1391 52.5824L23.8903 52.0071C22.4024 48.1848 21.589 44.0253 21.589 39.674C21.589 20.8934 36.8152 5.66725 55.5958 5.66725C64.4009 5.66725 72.4223 9.01337 78.4632 14.5021C78.9029 14.5715 79.3493 14.6079 79.799 14.6079C79.9246 14.6079 80.047 14.6046 80.1726 14.6013L80.986 14.5649L86.1308 14.34C78.8533 5.57797 67.8759 0 55.5958 0Z" fill="url(#paint1_linear_94_2)"/>
<path d="M20.5502 122.931H21.6611V126.687L23.4995 122.931H24.5311L22.9573 126.449L24.7824 130.906H23.6979L22.1769 127.163L21.6611 128.089V130.906H20.5502V122.931Z" fill="#939393"/>
<path d="M29.3236 122.931H30.3949L32.101 130.906H31.0562L30.6859 128.896H29.0591L28.6756 130.906H27.6307L29.3236 122.931ZM30.5404 128.102L29.8659 124.505L29.2046 128.102H30.5404Z" fill="#939393"/>
<path d="M35.3042 130.113L37.6584 123.725H35.4497V122.931H38.8355V123.407L36.3623 130.113H38.8355V130.906H35.3042V130.113Z" fill="#939393"/>
<path d="M43.5609 122.931H44.6322L46.3384 130.906H45.2935L44.9232 128.896H43.2964L42.9129 130.906H41.868L43.5609 122.931ZM44.7777 128.102L44.1032 124.505L43.4419 128.102H44.7777Z" fill="#939393"/>
<path d="M49.7922 122.931H50.9032V126.687L52.7416 122.931H53.7732L52.1993 126.449L54.0245 130.906H52.94L51.419 127.163L50.9032 128.089V130.906H49.7922V122.931Z" fill="#939393"/>
<path d="M57.3096 122.931H58.4205V126.37H60.4705V122.931H61.5815V130.906H60.4705V127.177H58.4205V130.906H57.3096V122.931Z" fill="#939393"/>
<path d="M67.3548 131C66.6836 131 66.1711 130.795 65.8206 130.378C65.4767 129.965 65.2816 129.396 65.2386 128.672L66.2306 128.408C66.257 128.92 66.3529 129.334 66.5215 129.651C66.6869 129.962 66.9646 130.114 67.3548 130.114C67.6457 130.114 67.864 130.035 68.0161 129.876C68.1649 129.717 68.2409 129.489 68.2409 129.188C68.2409 128.854 68.1682 128.58 68.0293 128.368C67.8871 128.15 67.6656 127.905 67.368 127.641L66.0322 126.464C65.7578 126.226 65.5594 125.971 65.437 125.697C65.3213 125.425 65.2651 125.095 65.2651 124.705C65.2651 124.116 65.4304 123.66 65.7677 123.342C66.1016 123.018 66.5546 122.853 67.1299 122.853C67.7648 122.853 68.2409 123.022 68.5583 123.356C68.8823 123.693 69.0774 124.212 69.1403 124.916L68.2012 125.168C68.1649 124.711 68.0723 124.354 67.9235 124.096C67.7714 123.842 67.5069 123.713 67.1299 123.713C66.8456 123.713 66.6307 123.789 66.4819 123.938C66.3298 124.09 66.257 124.305 66.257 124.586C66.257 124.824 66.2967 125.029 66.3761 125.194C66.4554 125.353 66.5877 125.511 66.7728 125.67L68.1219 126.86C68.4724 127.171 68.7501 127.505 68.9551 127.866C69.1667 128.229 69.2725 128.639 69.2725 129.096C69.2725 129.678 69.0907 130.14 68.7303 130.484C68.3765 130.828 67.9169 131 67.3548 131Z" fill="#939393"/>
<path d="M73.6507 123.751H72.3016V122.931H76.0842V123.751H74.7616V130.906H73.6507V123.751Z" fill="#939393"/>
<path d="M80.7437 122.931H81.815L83.5211 130.906H82.4763L82.1059 128.896H80.4792L80.0956 130.906H79.0508L80.7437 122.931ZM81.9605 128.102L81.2859 124.505L80.6246 128.102H81.9605Z" fill="#939393"/>
<path d="M86.9753 122.931H87.7292L90.004 128.221V122.931H90.9298V130.906H90.2157L87.9144 125.457V130.906H86.9753V122.931Z" fill="#939393"/>
<path d="M8.26611 112.783C6.57321 112.783 5.10846 112.422 3.87515 111.698C2.63854 110.977 1.68298 109.946 1.00516 108.603C0.333951 107.264 0 105.69 0 103.882C0 102.083 0.330644 100.519 0.991933 99.1867C1.65984 97.8476 2.6187 96.8159 3.86193 96.0918C5.10515 95.371 6.57321 95.0073 8.26611 95.0073C9.94909 95.0073 11.4072 95.371 12.6438 96.0918C13.8871 96.8159 14.8393 97.8476 15.5006 99.1867C16.1619 100.519 16.4925 102.083 16.4925 103.882C16.4925 105.69 16.1553 107.264 15.4874 108.603C14.8162 109.946 13.8606 110.977 12.6174 111.698C11.3808 112.422 9.93256 112.783 8.26611 112.783ZM8.26611 110.243C9.8532 110.243 11.0898 109.698 11.9826 108.603C12.872 107.502 13.3184 105.929 13.3184 103.882C13.3184 101.838 12.872 100.271 11.9826 99.1867C11.0898 98.0955 9.8532 97.5467 8.26611 97.5467C6.65918 97.5467 5.40934 98.0955 4.50999 99.1867C3.61725 100.271 3.17419 101.838 3.17419 103.882C3.17419 105.929 3.61725 107.502 4.50999 108.603C5.40934 109.698 6.65918 110.243 8.26611 110.243Z" fill="#154D54"/>
<path d="M22.5012 112.704C22.0251 112.704 21.6416 112.561 21.3506 112.28C21.0662 111.989 20.9274 111.599 20.9274 111.103V96.7269C20.9274 96.2607 21.0629 95.8937 21.3374 95.6292C21.6085 95.3647 21.9788 95.2324 22.4483 95.2324H28.4925C30.3441 95.2324 31.7857 95.6953 32.8173 96.6211C33.8556 97.5469 34.378 98.8497 34.378 100.523C34.378 102.189 33.8556 103.492 32.8173 104.424C31.7857 105.36 30.3441 105.826 28.4925 105.826H24.1016V111.103C24.1016 111.599 23.9561 111.989 23.6651 112.28C23.3807 112.561 22.9939 112.704 22.5012 112.704ZM28.109 103.393C30.2846 103.393 31.3757 102.44 31.3757 100.536C31.3757 98.6414 30.2846 97.6924 28.109 97.6924H24.1016V103.393H28.109Z" fill="#154D54"/>
<path d="M39.9115 112.558C39.442 112.558 39.0716 112.433 38.8005 112.175C38.5261 111.91 38.3905 111.54 38.3905 111.064V96.7269C38.3905 96.2607 38.5261 95.8937 38.8005 95.6292C39.0716 95.3647 39.442 95.2324 39.9115 95.2324H48.786C49.2621 95.2324 49.6258 95.3382 49.8837 95.5498C50.1482 95.7615 50.2805 96.0656 50.2805 96.4624C50.2805 96.8691 50.1482 97.1865 49.8837 97.4147C49.6258 97.6362 49.2621 97.7453 48.786 97.7453H41.4853V102.507H48.2966C48.7727 102.507 49.1364 102.612 49.3943 102.824C49.6589 103.036 49.7911 103.35 49.7911 103.763C49.7911 104.153 49.6589 104.457 49.3943 104.676C49.1364 104.887 48.7727 104.993 48.2966 104.993H41.4853V110.045H48.786C49.2621 110.045 49.6258 110.161 49.8837 110.389C50.1482 110.611 50.2805 110.925 50.2805 111.328C50.2805 111.725 50.1482 112.029 49.8837 112.241C49.6258 112.452 49.2621 112.558 48.786 112.558H39.9115Z" fill="#154D54"/>
<path d="M67.2291 95.1128C67.6854 95.1128 68.0524 95.2583 68.3268 95.5492C68.598 95.8336 68.7368 96.2105 68.7368 96.6867V111.103C68.7368 111.579 68.5947 111.969 68.3136 112.267C68.0392 112.558 67.6788 112.703 67.2291 112.703C66.7067 112.703 66.3066 112.515 66.0256 112.134L57.0585 100.469V111.103C57.0585 111.579 56.9262 111.969 56.6617 112.267C56.4038 112.558 56.0467 112.703 55.5904 112.703C55.1308 112.703 54.7704 112.558 54.5059 112.267C54.2414 111.969 54.1091 111.579 54.1091 111.103V96.6867C54.1091 96.2105 54.2447 95.8336 54.5191 95.5492C54.8002 95.2583 55.1705 95.1128 55.6301 95.1128C56.1393 95.1128 56.5361 95.3046 56.8204 95.6815L65.761 107.294V96.6867C65.761 96.2105 65.8933 95.8336 66.1578 95.5492C66.4289 95.2583 66.786 95.1128 67.2291 95.1128Z" fill="#154D54"/>
<path d="M84.3819 103.618C85.3772 103.892 86.1476 104.398 86.6965 105.139C87.242 105.873 87.5165 106.772 87.5165 107.837C87.5165 109.311 86.9874 110.465 85.9294 111.302C84.8779 112.142 83.4297 112.558 81.5781 112.558H75.2297C74.7602 112.558 74.3899 112.433 74.1187 112.175C73.8443 111.91 73.7087 111.54 73.7087 111.064V96.7269C73.7087 96.2607 73.8443 95.8937 74.1187 95.6292C74.3899 95.3647 74.7602 95.2324 75.2297 95.2324H81.3268C83.1321 95.2324 84.5473 95.6292 85.5723 96.4227C86.594 97.2163 87.1065 98.3273 87.1065 99.7556C87.1065 100.675 86.8618 101.468 86.379 102.136C85.893 102.807 85.2284 103.3 84.3819 103.618ZM76.8036 102.533H80.811C82.9866 102.533 84.0777 101.723 84.0777 100.1C84.0777 99.2795 83.8066 98.6777 83.271 98.2876C82.732 97.8908 81.912 97.6924 80.811 97.6924H76.8036V102.533ZM81.2342 110.098C82.3782 110.098 83.2115 109.897 83.7339 109.49C84.2629 109.077 84.5274 108.438 84.5274 107.572C84.5274 106.699 84.2563 106.051 83.7207 105.628C83.1916 105.205 82.3617 104.993 81.2342 104.993H76.8036V110.098H81.2342Z" fill="#154D54"/>
<path d="M93.3107 112.703C92.8346 112.703 92.451 112.558 92.16 112.267C91.8757 111.969 91.7368 111.579 91.7368 111.103V96.6867C91.7368 96.2105 91.8757 95.8336 92.16 95.5492C92.451 95.2583 92.8346 95.1128 93.3107 95.1128C93.8033 95.1128 94.1902 95.2583 94.4746 95.5492C94.7655 95.8336 94.911 96.2105 94.911 96.6867V111.103C94.911 111.579 94.7655 111.969 94.4746 112.267C94.1902 112.558 93.8033 112.703 93.3107 112.703Z" fill="#154D54"/>
<path d="M110.776 110.032C111.761 110.032 112.257 110.449 112.257 111.275C112.257 112.132 111.761 112.558 110.776 112.558H100.314C99.881 112.558 99.5371 112.433 99.2826 112.175C99.0346 111.92 98.9122 111.599 98.9122 111.209C98.9122 110.812 99.0445 110.435 99.309 110.072L108.104 97.7585H100.407C99.428 97.7585 98.9387 97.3452 98.9387 96.5153C98.9387 95.6623 99.428 95.2324 100.407 95.2324H110.564C110.987 95.2324 111.321 95.3614 111.569 95.616C111.824 95.8739 111.953 96.1847 111.953 96.555C111.953 96.9352 111.814 97.3155 111.543 97.6924L102.748 110.032H110.776Z" fill="#154D54"/>
<defs>
<linearGradient id="paint0_linear_94_2" x1="70.1492" y1="20.3142" x2="16.8229" y2="70.4663" gradientUnits="userSpaceOnUse">
<stop stop-color="#5C7ABF"/>
<stop offset="1" stop-color="#9E7FEE"/>
</linearGradient>
<linearGradient id="paint1_linear_94_2" x1="36.8202" y1="59.0399" x2="83.7982" y2="7.61804" gradientUnits="userSpaceOnUse">
<stop stop-color="#FFA40E"/>
<stop offset="1" stop-color="#FD8849"/>
</linearGradient>
</defs>
</svg>
